<svg xmlns="http://www.w3.org/2000/svg" width="1280" height="640" viewBox="0 0 1280 640" role="img" aria-labelledby="title desc">
  <title id="title">GOC-Base-Repo-Template social preview</title>
  <desc id="desc">High-energy GitHub template preview for Lipford-Dutch projects.</desc>
  <defs>
    <linearGradient id="bg" x1="0" y1="0" x2="1" y2="1">
      <stop offset="0" stop-color="#020617"/>
      <stop offset="0.48" stop-color="#0f172a"/>
      <stop offset="1" stop-color="#020617"/>
    </linearGradient>
    <radialGradient id="cyan" cx="16%" cy="14%" r="70%">
      <stop offset="0" stop-color="#00E5FF" stop-opacity="0.42"/>
      <stop offset="0.48" stop-color="#00E5FF" stop-opacity="0.08"/>
      <stop offset="1" stop-color="#00E5FF" stop-opacity="0"/>
    </radialGradient>
    <radialGradient id="lime" cx="86%" cy="20%" r="62%">
      <stop offset="0" stop-color="#00FF66" stop-opacity="0.36"/>
      <stop offset="0.58" stop-color="#00FF66" stop-opacity="0.06"/>
      <stop offset="1" stop-color="#00FF66" stop-opacity="0"/>
    </radialGradient>
    <filter id="glow" x="-30%" y="-30%" width="160%" height="160%">
      <feGaussianBlur stdDeviation="8" result="blur"/>
      <feMerge>
        <feMergeNode in="blur"/>
        <feMergeNode in="SourceGraphic"/>
      </feMerge>
    </filter>
  </defs>
  <rect width="1280" height="640" fill="url(#bg)"/>
  <rect width="1280" height="640" fill="url(#cyan)"/>
  <rect width="1280" height="640" fill="url(#lime)"/>
  <path d="M0 66H1280" stroke="#00FF66" stroke-width="6"/>
  <path d="M0 574H1280" stroke="#00E5FF" stroke-width="6"/>
  <g opacity="0.22" stroke="#94a3b8" stroke-width="1">
    <path d="M70 0v640M190 0v640M310 0v640M430 0v640M550 0v640M670 0v640M790 0v640M910 0v640M1030 0v640M1150 0v640"/>
    <path d="M0 130h1280M0 250h1280M0 370h1280M0 490h1280"/>
  </g>
  <g transform="translate(78 86)">
    <rect x="0" y="0" width="498" height="48" rx="24" fill="#00E5FF" fill-opacity="0.12" stroke="#00E5FF" stroke-opacity="0.65"/>
    <text x="28" y="31" fill="#67e8f9" font-family="Inter, Arial, sans-serif" font-size="18" font-weight="900" letter-spacing="4">LIPFORD-DUTCH TEMPLATE SYSTEM</text>
  </g>
  <text x="78" y="230" fill="#ffffff" font-family="Arial Black, Impact, Inter, Arial, sans-serif" font-size="88" font-weight="900" letter-spacing="-4">GOC-BASE</text>
  <text x="78" y="322" fill="none" stroke="#00FF66" stroke-width="2" font-family="Arial Black, Impact, Inter, Arial, sans-serif" font-size="88" font-weight="900" letter-spacing="-4">REPO TEMPLATE</text>
  <text x="82" y="388" fill="#cbd5e1" font-family="Inter, Arial, sans-serif" font-size="30" font-weight="700">Docs. CI/CD. Security. Governance. Release discipline.</text>
  <text x="82" y="432" fill="#94a3b8" font-family="Inter, Arial, sans-serif" font-size="24">The launch pad every new Generals of Chaos project inherits.</text>
  <g transform="translate(82 492)" font-family="Inter, Arial, sans-serif" font-weight="900" font-size="20" letter-spacing="2">
    <rect x="0" y="0" width="178" height="52" rx="26" fill="#00FF66" filter="url(#glow)"/>
    <text x="28" y="34" fill="#020617">KICKOFF</text>
    <rect x="202" y="0" width="150" height="52" rx="26" fill="#00E5FF" fill-opacity="0.16" stroke="#00E5FF"/>
    <text x="230" y="34" fill="#67e8f9">SECURE</text>
    <rect x="376" y="0" width="144" height="52" rx="26" fill="#FF6C00" fill-opacity="0.16" stroke="#FF6C00"/>
    <text x="405" y="34" fill="#fdba74">SHIP</text>
  </g>
  <g transform="translate(900 128)">
    <rect x="0" y="0" width="282" height="356" rx="32" fill="#020617" fill-opacity="0.82" stroke="#334155"/>
    <text x="34" y="70" fill="#00FF66" font-family="Arial Black, Impact, Arial, sans-serif" font-size="46">READY</text>
    <text x="34" y="126" fill="#ffffff" font-family="Arial Black, Impact, Arial, sans-serif" font-size="46">DAY 0</text>
    <path d="M34 164h214" stroke="#00E5FF" stroke-width="3"/>
    <text x="34" y="214" fill="#cbd5e1" font-family="Inter, Arial, sans-serif" font-size="20">Issue templates</text>
    <text x="34" y="252" fill="#cbd5e1" font-family="Inter, Arial, sans-serif" font-size="20">PR gates</text>
    <text x="34" y="290" fill="#cbd5e1" font-family="Inter, Arial, sans-serif" font-size="20">MkDocs Pages</text>
    <text x="34" y="328" fill="#cbd5e1" font-family="Inter, Arial, sans-serif" font-size="20">Security baseline</text>
  </g>
</svg>
